PathFileType	4	(X/Y/Z)	C:\Users\WrightLab\Desktop\Jo\P1.2Trial2.trc
DataRate	CameraRate	NumFrames	NumMarkers	Units	OrigDataRate	OrigDataStartFrame	OrigNumFrames
100.00	100.00	       21	19	mm	100.00	210	       838
Frame#	Time	Headset_Front			Headset_Back			Headset_Left			Headset_Right			Left_Shoulder			Right_Shoulder			Sternum			C7			Left Elbow			Right Elbow			Left Wrist			Right Wrist			Left ASIS			Right ASIS			S2			Left Knee			Right Knee			Left Ankle			Right Ankle			
		X1	Y1	Z1	X2	Y2	Z2	X3	Y3	Z3	X4	Y4	Z4	X5	Y5	Z5	X6	Y6	Z6	X7	Y7	Z7	X8	Y8	Z8	X9	Y9	Z9	X10	Y10	Z10	X11	Y11	Z11	X12	Y12	Z12	X13	Y13	Z13	X14	Y14	Z14	X15	Y15	Z15	X16	Y16	Z16	X17	Y17	Z17	X18	Y18	Z18	X19	Y19	Z19	

210	2.090							-709.17578	1376.53784	1386.65649				-830.20032	1300.10339	1597.19421													-374.79700	949.14087	1522.65015				-384.47736	734.49194	1364.89209																			-555.11523	119.80003	1697.18945	
211	2.100							-710.87225	1376.73474	1386.11621				-832.09521	1299.66248	1597.41028													-375.91586	950.17548	1523.78613				-384.31079	736.46826	1365.64026																			-554.98535	119.79125	1697.20227	
212	2.110							-712.41431	1377.06250	1385.73840				-834.14301	1299.62646	1596.88391													-376.08932	950.53546	1524.48792				-384.77060	738.41840	1366.71448																			-554.21112	119.88583	1698.71741	
213	2.120							-713.88409	1377.20874	1385.25745				-836.35779	1299.39624	1596.64636													-378.52725	950.55157	1525.62781				-385.14481	740.80725	1367.64722																			-554.04846	119.97551	1698.72742	
214	2.130							-715.90704	1377.56189	1384.73047				-838.35370	1299.10645	1596.14893													-379.43411	952.05280	1526.75647				-385.59515	743.10114	1368.79773																			-553.92383	120.10185	1698.73157	
215	2.140							-719.55933	1378.90540	1384.48462				-840.77063	1299.04443	1595.73181													-380.74231	952.66040	1528.40601				-385.69989	745.71820	1370.04651																			-553.74963	120.35614	1699.00415	
216	2.150							-719.67218	1378.18176	1383.76050				-842.86749	1298.95764	1595.10254													-381.87201	952.76221	1530.69275				-385.56754	748.49554	1371.76599																-956.23669	165.95389	1800.56494	-553.58661	120.41247	1699.01611	
217	2.160							-721.81976	1378.50537	1383.22229				-845.38989	1298.77808	1593.92480													-383.37601	953.20593	1533.06616				-385.94589	752.10541	1373.64429																-960.04956	166.10712	1790.37585	-553.06342	120.82270	1698.25732	
218	2.170							-723.78973	1378.84485	1382.70825				-847.68298	1298.90283	1593.86755													-385.09030	954.04126	1536.77466				-385.94180	756.19293	1375.20654																-963.51563	166.58841	1781.93066	-553.30133	120.57680	1699.03296	
219	2.180							-726.33307	1379.16711	1382.11377				-850.25879	1298.81116	1592.61646													-386.85062	954.54535	1541.02795				-386.00278	760.51086	1377.51855																-967.01404	166.76215	1772.72632	-552.51709	121.25880	1697.54333	
220	2.190							-728.48102	1379.45850	1381.58008				-852.80121	1298.63953	1592.05811													-388.86084	955.62305	1545.54993				-387.05420	765.21246	1378.70764																-970.76263	167.59460	1763.88306	-551.86597	120.91369	1698.99182	
221	2.200							-731.18030	1379.80627	1380.97888				-855.54340	1298.52344	1590.99854													-391.40332	955.43378	1550.93103				-387.55612	770.08984	1379.99963																-974.32001	168.27325	1754.02100	-552.66559	120.93468	1698.33948	
222	2.210							-733.56708	1380.10730	1380.47766				-858.43433	1298.28589	1590.09656													-394.02917	956.06793	1556.01611				-388.38855	775.37921	1382.55701																-977.80109	168.99524	1745.22095	-552.02899	119.96862	1699.73926	
223	2.220							-736.34283	1380.46936	1379.90808				-861.28613	1297.87292	1590.29236													-396.45679	956.86749	1562.89819				-388.81934	781.00037	1383.79346																-981.60040	168.76488	1737.18835	-552.34961	119.46274	1700.47192	
224	2.230							-739.14276	1380.86560	1379.41370				-864.47101	1297.63611	1589.07483													-399.73218	957.65955	1569.36304				-390.08591	787.03674	1385.77283																-985.27454	169.17451	1729.21301	-552.39545	119.39729	1700.47168	
225	2.240							-742.06024	1381.35352	1378.85938				-867.67377	1297.13623	1589.06409													-402.25711	958.71503	1574.19592				-390.97397	793.63062	1386.82690																-988.72510	169.57994	1719.83936	-552.50708	119.35489	1700.46375	
226	2.250							-745.12683	1381.90906	1378.37964				-870.98566	1296.64758	1588.31616													-404.48615	960.84186	1579.65698				-391.27612	800.66162	1389.16052																-992.27301	169.55798	1712.48108	-552.52069	119.32574	1700.46423	
227	2.260							-748.17108	1382.38354	1377.87842				-874.25946	1296.30298	1586.08704													-407.60577	962.01233	1583.91455				-395.39978	805.80182	1391.14966																-995.55768	169.64854	1704.16345	-552.44751	119.31146	1700.47205	
228	2.270							-751.40210	1383.07141	1377.33044				-877.56488	1296.03174	1584.23181													-410.18625	964.55054	1587.91760				-397.12653	813.54126	1392.14087																-998.75366	170.18315	1695.71436	-552.39386	119.35706	1700.47424	
229	2.280							-756.54388	1384.86365	1377.14539				-881.10236	1295.63403	1583.47217													-412.92365	965.97736	1592.04797				-398.76505	819.51666	1393.47205																-1002.21112	169.77986	1689.70471	-552.35547	119.39284	1700.47571	
230	2.290							-758.24792	1384.68201	1376.38782				-884.83844	1295.30310	1582.05029													-415.27618	968.08252	1594.63489				-401.33636	826.34125	1394.31860																-1005.05737	170.28502	1682.05591	-552.21912	119.36875	1700.48999	
